<mxfile host="Electron" agent="Mozilla/5.0 (Windows NT 10.0; Win64; x64) AppleWebKit/537.36 (KHTML, like Gecko) draw.io/27.0.9 Chrome/134.0.6998.205 Electron/35.4.0 Safari/537.36" version="27.0.9">
  <diagram name="Страница — 1" id="kWdVY2OQfNo42tW6z22s">
    <mxGraphModel dx="1042" dy="626" grid="1" gridSize="10" guides="1" tooltips="1" connect="1" arrows="1" fold="1" page="1" pageScale="1" pageWidth="827" pageHeight="1169" math="0" shadow="0">
      <root>
        <mxCell id="0" />
        <mxCell id="1" parent="0" />
        <mxCell id="tH4WLNx2mZmOck6k0cQP-1" value="Task" style="swimlane;fontStyle=0;childLayout=stackLayout;horizontal=1;startSize=30;horizontalStack=0;resizeParent=1;resizeParentMax=0;resizeLast=0;collapsible=1;marginBottom=0;whiteSpace=wrap;html=1;" vertex="1" parent="1">
          <mxGeometry x="40" y="40" width="140" height="90" as="geometry" />
        </mxCell>
        <mxCell id="tH4WLNx2mZmOck6k0cQP-2" value="String name" style="text;strokeColor=none;fillColor=none;align=left;verticalAlign=middle;spacingLeft=4;spacingRight=4;overflow=hidden;points=[[0,0.5],[1,0.5]];portConstraint=eastwest;rotatable=0;whiteSpace=wrap;html=1;" vertex="1" parent="tH4WLNx2mZmOck6k0cQP-1">
          <mxGeometry y="30" width="140" height="30" as="geometry" />
        </mxCell>
        <mxCell id="tH4WLNx2mZmOck6k0cQP-3" value="int duration" style="text;strokeColor=none;fillColor=none;align=left;verticalAlign=middle;spacingLeft=4;spacingRight=4;overflow=hidden;points=[[0,0.5],[1,0.5]];portConstraint=eastwest;rotatable=0;whiteSpace=wrap;html=1;" vertex="1" parent="tH4WLNx2mZmOck6k0cQP-1">
          <mxGeometry y="60" width="140" height="30" as="geometry" />
        </mxCell>
        <mxCell id="tH4WLNx2mZmOck6k0cQP-16" style="edgeStyle=orthogonalEdgeStyle;rounded=0;orthogonalLoop=1;jettySize=auto;html=1;exitX=0.5;exitY=1;exitDx=0;exitDy=0;endArrow=none;startFill=0;" edge="1" parent="1" source="tH4WLNx2mZmOck6k0cQP-5">
          <mxGeometry relative="1" as="geometry">
            <mxPoint x="309.9354838709677" y="320" as="targetPoint" />
          </mxGeometry>
        </mxCell>
        <mxCell id="tH4WLNx2mZmOck6k0cQP-5" value="EmployeeData" style="swimlane;fontStyle=0;childLayout=stackLayout;horizontal=1;startSize=30;horizontalStack=0;resizeParent=1;resizeParentMax=0;resizeLast=0;collapsible=1;marginBottom=0;whiteSpace=wrap;html=1;" vertex="1" parent="1">
          <mxGeometry x="220" y="40" width="180" height="250" as="geometry" />
        </mxCell>
        <mxCell id="tH4WLNx2mZmOck6k0cQP-6" value="int id" style="text;strokeColor=none;fillColor=none;align=left;verticalAlign=middle;spacingLeft=4;spacingRight=4;overflow=hidden;points=[[0,0.5],[1,0.5]];portConstraint=eastwest;rotatable=0;whiteSpace=wrap;html=1;" vertex="1" parent="tH4WLNx2mZmOck6k0cQP-5">
          <mxGeometry y="30" width="180" height="30" as="geometry" />
        </mxCell>
        <mxCell id="tH4WLNx2mZmOck6k0cQP-7" value="String name" style="text;strokeColor=none;fillColor=none;align=left;verticalAlign=middle;spacingLeft=4;spacingRight=4;overflow=hidden;points=[[0,0.5],[1,0.5]];portConstraint=eastwest;rotatable=0;whiteSpace=wrap;html=1;" vertex="1" parent="tH4WLNx2mZmOck6k0cQP-5">
          <mxGeometry y="60" width="180" height="30" as="geometry" />
        </mxCell>
        <mxCell id="tH4WLNx2mZmOck6k0cQP-9" value="int workTime" style="text;strokeColor=none;fillColor=none;align=left;verticalAlign=middle;spacingLeft=4;spacingRight=4;overflow=hidden;points=[[0,0.5],[1,0.5]];portConstraint=eastwest;rotatable=0;whiteSpace=wrap;html=1;" vertex="1" parent="tH4WLNx2mZmOck6k0cQP-5">
          <mxGeometry y="90" width="180" height="30" as="geometry" />
        </mxCell>
        <mxCell id="tH4WLNx2mZmOck6k0cQP-10" value="int idleTime" style="text;strokeColor=none;fillColor=none;align=left;verticalAlign=middle;spacingLeft=4;spacingRight=4;overflow=hidden;points=[[0,0.5],[1,0.5]];portConstraint=eastwest;rotatable=0;whiteSpace=wrap;html=1;" vertex="1" parent="tH4WLNx2mZmOck6k0cQP-5">
          <mxGeometry y="120" width="180" height="30" as="geometry" />
        </mxCell>
        <mxCell id="tH4WLNx2mZmOck6k0cQP-11" value="int workDayCount" style="text;strokeColor=none;fillColor=none;align=left;verticalAlign=middle;spacingLeft=4;spacingRight=4;overflow=hidden;points=[[0,0.5],[1,0.5]];portConstraint=eastwest;rotatable=0;whiteSpace=wrap;html=1;" vertex="1" parent="tH4WLNx2mZmOck6k0cQP-5">
          <mxGeometry y="150" width="180" height="30" as="geometry" />
        </mxCell>
        <mxCell id="tH4WLNx2mZmOck6k0cQP-12" value="int taskCompleted" style="text;strokeColor=none;fillColor=none;align=left;verticalAlign=middle;spacingLeft=4;spacingRight=4;overflow=hidden;points=[[0,0.5],[1,0.5]];portConstraint=eastwest;rotatable=0;whiteSpace=wrap;html=1;" vertex="1" parent="tH4WLNx2mZmOck6k0cQP-5">
          <mxGeometry y="180" width="180" height="30" as="geometry" />
        </mxCell>
        <mxCell id="tH4WLNx2mZmOck6k0cQP-13" value="List&amp;lt;Integer&amp;gt; effectiveness" style="text;strokeColor=none;fillColor=none;align=left;verticalAlign=middle;spacingLeft=4;spacingRight=4;overflow=hidden;points=[[0,0.5],[1,0.5]];portConstraint=eastwest;rotatable=0;whiteSpace=wrap;html=1;" vertex="1" parent="tH4WLNx2mZmOck6k0cQP-5">
          <mxGeometry y="210" width="180" height="40" as="geometry" />
        </mxCell>
        <mxCell id="tH4WLNx2mZmOck6k0cQP-18" value="&lt;font style=&quot;font-size: 9px;&quot;&gt;countGeneralEffectiveness()&lt;/font&gt;" style="rounded=0;whiteSpace=wrap;html=1;" vertex="1" parent="1">
          <mxGeometry x="250" y="320" width="120" height="60" as="geometry" />
        </mxCell>
        <mxCell id="tH4WLNx2mZmOck6k0cQP-23" style="edgeStyle=orthogonalEdgeStyle;rounded=0;orthogonalLoop=1;jettySize=auto;html=1;exitX=0.5;exitY=1;exitDx=0;exitDy=0;endArrow=none;startFill=0;" edge="1" parent="1" source="tH4WLNx2mZmOck6k0cQP-19">
          <mxGeometry relative="1" as="geometry">
            <mxPoint x="509.9655172413793" y="200" as="targetPoint" />
          </mxGeometry>
        </mxCell>
        <mxCell id="tH4WLNx2mZmOck6k0cQP-19" value="EmployeeThread" style="swimlane;fontStyle=0;childLayout=stackLayout;horizontal=1;startSize=30;horizontalStack=0;resizeParent=1;resizeParentMax=0;resizeLast=0;collapsible=1;marginBottom=0;whiteSpace=wrap;html=1;" vertex="1" parent="1">
          <mxGeometry x="440" y="40" width="140" height="120" as="geometry" />
        </mxCell>
        <mxCell id="tH4WLNx2mZmOck6k0cQP-20" value="EmployeeData data" style="text;strokeColor=none;fillColor=none;align=left;verticalAlign=middle;spacingLeft=4;spacingRight=4;overflow=hidden;points=[[0,0.5],[1,0.5]];portConstraint=eastwest;rotatable=0;whiteSpace=wrap;html=1;" vertex="1" parent="tH4WLNx2mZmOck6k0cQP-19">
          <mxGeometry y="30" width="140" height="30" as="geometry" />
        </mxCell>
        <mxCell id="tH4WLNx2mZmOck6k0cQP-21" value="TaskList taskList" style="text;strokeColor=none;fillColor=none;align=left;verticalAlign=middle;spacingLeft=4;spacingRight=4;overflow=hidden;points=[[0,0.5],[1,0.5]];portConstraint=eastwest;rotatable=0;whiteSpace=wrap;html=1;" vertex="1" parent="tH4WLNx2mZmOck6k0cQP-19">
          <mxGeometry y="60" width="140" height="30" as="geometry" />
        </mxCell>
        <mxCell id="tH4WLNx2mZmOck6k0cQP-22" value="boolean isRunning" style="text;strokeColor=none;fillColor=none;align=left;verticalAlign=middle;spacingLeft=4;spacingRight=4;overflow=hidden;points=[[0,0.5],[1,0.5]];portConstraint=eastwest;rotatable=0;whiteSpace=wrap;html=1;" vertex="1" parent="tH4WLNx2mZmOck6k0cQP-19">
          <mxGeometry y="90" width="140" height="30" as="geometry" />
        </mxCell>
        <mxCell id="tH4WLNx2mZmOck6k0cQP-24" value="&lt;font&gt;run()&lt;/font&gt;" style="rounded=0;whiteSpace=wrap;html=1;" vertex="1" parent="1">
          <mxGeometry x="450" y="200" width="120" height="60" as="geometry" />
        </mxCell>
        <mxCell id="tH4WLNx2mZmOck6k0cQP-29" style="edgeStyle=orthogonalEdgeStyle;rounded=0;orthogonalLoop=1;jettySize=auto;html=1;exitX=0.5;exitY=1;exitDx=0;exitDy=0;endArrow=none;startFill=0;entryX=0.336;entryY=0.005;entryDx=0;entryDy=0;entryPerimeter=0;" edge="1" parent="1">
          <mxGeometry relative="1" as="geometry">
            <mxPoint x="640.32" y="180" as="targetPoint" />
            <mxPoint x="810" y="129.7" as="sourcePoint" />
            <Array as="points">
              <mxPoint x="810" y="159.7" />
              <mxPoint x="660" y="159.7" />
              <mxPoint x="660" y="179.7" />
            </Array>
          </mxGeometry>
        </mxCell>
        <mxCell id="tH4WLNx2mZmOck6k0cQP-25" value="TaskList" style="swimlane;fontStyle=0;childLayout=stackLayout;horizontal=1;startSize=30;horizontalStack=0;resizeParent=1;resizeParentMax=0;resizeLast=0;collapsible=1;marginBottom=0;whiteSpace=wrap;html=1;" vertex="1" parent="1">
          <mxGeometry x="740" y="40" width="140" height="90" as="geometry" />
        </mxCell>
        <mxCell id="tH4WLNx2mZmOck6k0cQP-26" value="List&amp;lt;Task&amp;gt; tasks" style="text;strokeColor=none;fillColor=none;align=left;verticalAlign=middle;spacingLeft=4;spacingRight=4;overflow=hidden;points=[[0,0.5],[1,0.5]];portConstraint=eastwest;rotatable=0;whiteSpace=wrap;html=1;" vertex="1" parent="tH4WLNx2mZmOck6k0cQP-25">
          <mxGeometry y="30" width="140" height="30" as="geometry" />
        </mxCell>
        <mxCell id="tH4WLNx2mZmOck6k0cQP-27" value="boolean isFinished" style="text;strokeColor=none;fillColor=none;align=left;verticalAlign=middle;spacingLeft=4;spacingRight=4;overflow=hidden;points=[[0,0.5],[1,0.5]];portConstraint=eastwest;rotatable=0;whiteSpace=wrap;html=1;" vertex="1" parent="tH4WLNx2mZmOck6k0cQP-25">
          <mxGeometry y="60" width="140" height="30" as="geometry" />
        </mxCell>
        <mxCell id="tH4WLNx2mZmOck6k0cQP-31" value="addTask()" style="rounded=0;whiteSpace=wrap;html=1;" vertex="1" parent="1">
          <mxGeometry x="600" y="180" width="120" height="60" as="geometry" />
        </mxCell>
        <mxCell id="tH4WLNx2mZmOck6k0cQP-32" value="getNextTask()" style="rounded=0;whiteSpace=wrap;html=1;" vertex="1" parent="1">
          <mxGeometry x="750" y="180" width="120" height="60" as="geometry" />
        </mxCell>
        <mxCell id="tH4WLNx2mZmOck6k0cQP-33" value="setFinished()" style="rounded=0;whiteSpace=wrap;html=1;" vertex="1" parent="1">
          <mxGeometry x="900" y="180" width="120" height="60" as="geometry" />
        </mxCell>
        <mxCell id="tH4WLNx2mZmOck6k0cQP-34" value="" style="endArrow=none;html=1;rounded=0;exitX=0.5;exitY=0;exitDx=0;exitDy=0;" edge="1" parent="1" source="tH4WLNx2mZmOck6k0cQP-32">
          <mxGeometry width="50" height="50" relative="1" as="geometry">
            <mxPoint x="670" y="160" as="sourcePoint" />
            <mxPoint x="810" y="160" as="targetPoint" />
          </mxGeometry>
        </mxCell>
        <mxCell id="tH4WLNx2mZmOck6k0cQP-35" value="" style="endArrow=none;html=1;rounded=0;entryX=0.491;entryY=0.001;entryDx=0;entryDy=0;entryPerimeter=0;edgeStyle=orthogonalEdgeStyle;" edge="1" parent="1" target="tH4WLNx2mZmOck6k0cQP-33">
          <mxGeometry width="50" height="50" relative="1" as="geometry">
            <mxPoint x="810" y="160" as="sourcePoint" />
            <mxPoint x="860" y="140" as="targetPoint" />
            <Array as="points">
              <mxPoint x="959" y="160" />
            </Array>
          </mxGeometry>
        </mxCell>
        <mxCell id="tH4WLNx2mZmOck6k0cQP-48" style="edgeStyle=orthogonalEdgeStyle;rounded=0;orthogonalLoop=1;jettySize=auto;html=1;exitX=0.5;exitY=1;exitDx=0;exitDy=0;endArrow=none;startFill=0;" edge="1" parent="1" source="tH4WLNx2mZmOck6k0cQP-45">
          <mxGeometry relative="1" as="geometry">
            <mxPoint x="1390" y="130" as="targetPoint" />
            <Array as="points">
              <mxPoint x="1460" y="130" />
            </Array>
          </mxGeometry>
        </mxCell>
        <mxCell id="tH4WLNx2mZmOck6k0cQP-45" value="WorkWithExcel" style="swimlane;fontStyle=0;childLayout=stackLayout;horizontal=1;startSize=30;horizontalStack=0;resizeParent=1;resizeParentMax=0;resizeLast=0;collapsible=1;marginBottom=0;whiteSpace=wrap;html=1;" vertex="1" parent="1">
          <mxGeometry x="1390" y="40" width="140" height="60" as="geometry" />
        </mxCell>
        <mxCell id="tH4WLNx2mZmOck6k0cQP-49" value="" style="endArrow=none;html=1;rounded=0;" edge="1" parent="1">
          <mxGeometry width="50" height="50" relative="1" as="geometry">
            <mxPoint x="1140" y="130" as="sourcePoint" />
            <mxPoint x="1780" y="130" as="targetPoint" />
          </mxGeometry>
        </mxCell>
        <mxCell id="tH4WLNx2mZmOck6k0cQP-50" value="readTaskFromExcel()" style="rounded=0;whiteSpace=wrap;html=1;" vertex="1" parent="1">
          <mxGeometry x="1080" y="170" width="120" height="60" as="geometry" />
        </mxCell>
        <mxCell id="tH4WLNx2mZmOck6k0cQP-51" value="readEmployee&lt;div&gt;DataFromExcel()&lt;/div&gt;" style="rounded=0;whiteSpace=wrap;html=1;" vertex="1" parent="1">
          <mxGeometry x="1240.5" y="170" width="120" height="60" as="geometry" />
        </mxCell>
        <mxCell id="tH4WLNx2mZmOck6k0cQP-52" value="parseTaskRow()" style="rounded=0;whiteSpace=wrap;html=1;" vertex="1" parent="1">
          <mxGeometry x="1400" y="170" width="120" height="60" as="geometry" />
        </mxCell>
        <mxCell id="tH4WLNx2mZmOck6k0cQP-53" value="parseEmployeeData()" style="rounded=0;whiteSpace=wrap;html=1;" vertex="1" parent="1">
          <mxGeometry x="1560" y="170" width="120" height="60" as="geometry" />
        </mxCell>
        <mxCell id="tH4WLNx2mZmOck6k0cQP-54" value="updateExcelData()" style="rounded=0;whiteSpace=wrap;html=1;" vertex="1" parent="1">
          <mxGeometry x="1720" y="170" width="120" height="60" as="geometry" />
        </mxCell>
        <mxCell id="tH4WLNx2mZmOck6k0cQP-55" value="" style="endArrow=none;html=1;rounded=0;exitX=0.5;exitY=0;exitDx=0;exitDy=0;" edge="1" parent="1" source="tH4WLNx2mZmOck6k0cQP-50">
          <mxGeometry width="50" height="50" relative="1" as="geometry">
            <mxPoint x="1170" y="240" as="sourcePoint" />
            <mxPoint x="1140" y="130" as="targetPoint" />
          </mxGeometry>
        </mxCell>
        <mxCell id="tH4WLNx2mZmOck6k0cQP-56" value="" style="endArrow=none;html=1;rounded=0;exitX=0.5;exitY=0;exitDx=0;exitDy=0;" edge="1" parent="1">
          <mxGeometry width="50" height="50" relative="1" as="geometry">
            <mxPoint x="1300.35" y="170" as="sourcePoint" />
            <mxPoint x="1300.35" y="130" as="targetPoint" />
          </mxGeometry>
        </mxCell>
        <mxCell id="tH4WLNx2mZmOck6k0cQP-57" value="" style="endArrow=none;html=1;rounded=0;exitX=0.5;exitY=0;exitDx=0;exitDy=0;" edge="1" parent="1">
          <mxGeometry width="50" height="50" relative="1" as="geometry">
            <mxPoint x="1459.71" y="170" as="sourcePoint" />
            <mxPoint x="1459.71" y="130" as="targetPoint" />
          </mxGeometry>
        </mxCell>
        <mxCell id="tH4WLNx2mZmOck6k0cQP-58" value="" style="endArrow=none;html=1;rounded=0;exitX=0.5;exitY=0;exitDx=0;exitDy=0;" edge="1" parent="1">
          <mxGeometry width="50" height="50" relative="1" as="geometry">
            <mxPoint x="1619.71" y="170" as="sourcePoint" />
            <mxPoint x="1619.71" y="130" as="targetPoint" />
          </mxGeometry>
        </mxCell>
        <mxCell id="tH4WLNx2mZmOck6k0cQP-59" value="" style="endArrow=none;html=1;rounded=0;exitX=0.5;exitY=0;exitDx=0;exitDy=0;" edge="1" parent="1">
          <mxGeometry width="50" height="50" relative="1" as="geometry">
            <mxPoint x="1779.71" y="170" as="sourcePoint" />
            <mxPoint x="1779.71" y="130" as="targetPoint" />
          </mxGeometry>
        </mxCell>
      </root>
    </mxGraphModel>
  </diagram>
</mxfile>
